<svg width="2920" height="1168" viewBox="0 0 2920 1168" fill="none" xmlns="http://www.w3.org/2000/svg">
<g clip-path="url(#clip0_64_58)">
<rect width="2920" height="1168" fill="white"/>
<rect x="-327" y="-59" width="3710" height="1287" rx="200" fill="url(#paint0_linear_64_58)"/>
<path d="M1649.91 464.745C1651.33 461.911 1651.33 459.077 1652.75 456.243C1664.12 394.194 1652.75 375.342 1652.75 375.342H1523.47C1523.47 375.342 1515.74 370.811 1512.07 368.257C1512.07 368.257 1374.28 283.104 1226.56 134.107C1222.28 129.856 1306.11 253.295 1399.87 351.226C1355.84 325.668 1230.81 236.29 1152.66 163.891C1161.2 179.505 1173.99 195.118 1186.76 210.731C1252.12 294.466 1337.37 396.624 1439.66 474.665C1367.21 518.696 1266.33 521.505 1164.04 474.665C1138.45 463.328 1117.17 449.132 1093 432.102C1135.61 498.806 1202.39 559.843 1281.96 592.461C1377.14 633.633 1473.74 630.799 1543.36 592.461H1544.8C1547.64 591.044 1550.47 589.627 1553.31 586.793C1587.41 569.762 1654.19 551.315 1691.13 622.271C1701.06 642.135 1719.52 549.898 1649.93 464.745H1649.91Z" fill="#E84E36"/>
<path d="M1607.5 320.556H1653.1V366.106H1607.5V320.556Z" fill="#E84E36"/>
<path d="M1547.46 320.556H1593.06V366.106H1547.46V320.556Z" fill="#E84E36"/>
<path d="M1487.42 320.556H1533.02V366.106H1516.68L1487.42 345.608V320.556Z" fill="#E84E36"/>
<path d="M1547.46 260.583H1593.06V306.132H1547.46V260.583Z" fill="#E84E36"/>
<path d="M1487.42 260.583H1533.02V306.132H1487.42V260.583Z" fill="#E84E36"/>
<path d="M1427.38 260.583H1472.98V306.132H1427.38V260.583Z" fill="#E84E36"/>
<path d="M1449.04 320.556H1475.26V339.155L1449.04 320.556Z" fill="#E84E36"/>
<path d="M1487.42 200.609H1533.02V246.159H1487.42V200.609Z" fill="#E84E36"/>
<path d="M1114.21 753.909L1076.07 863H1041.98L1003.84 753.909H1035.8L1058.46 831.963H1059.59L1082.18 753.909H1114.21ZM1129.69 863V753.909H1159.95V863H1129.69ZM1144.89 739.847C1140.39 739.847 1136.53 738.355 1133.31 735.372C1130.14 732.342 1128.55 728.72 1128.55 724.506C1128.55 720.339 1130.14 716.764 1133.31 713.781C1136.53 710.751 1140.39 709.236 1144.89 709.236C1149.39 709.236 1153.22 710.751 1156.4 713.781C1159.62 716.764 1161.23 720.339 1161.23 724.506C1161.23 728.72 1159.62 732.342 1156.4 735.372C1153.22 738.355 1149.39 739.847 1144.89 739.847ZM1184.18 863V753.909H1213.52V772.943H1214.65C1216.64 766.172 1219.98 761.059 1224.67 757.602C1229.35 754.098 1234.75 752.347 1240.86 752.347C1242.37 752.347 1244.01 752.441 1245.76 752.631C1247.51 752.82 1249.05 753.08 1250.38 753.412V780.259C1248.96 779.832 1246.99 779.454 1244.48 779.122C1241.97 778.791 1239.68 778.625 1237.59 778.625C1233.14 778.625 1229.16 779.596 1225.66 781.537C1222.2 783.431 1219.46 786.082 1217.42 789.491C1215.43 792.901 1214.44 796.83 1214.44 801.281V863H1184.18ZM1329.51 753.909V776.636H1263.82V753.909H1329.51ZM1278.73 727.773H1308.99V829.477C1308.99 832.271 1309.41 834.449 1310.27 836.011C1311.12 837.527 1312.3 838.592 1313.82 839.207C1315.38 839.823 1317.18 840.131 1319.22 840.131C1320.64 840.131 1322.06 840.012 1323.48 839.776C1324.9 839.491 1325.99 839.278 1326.74 839.136L1331.5 861.651C1329.99 862.124 1327.86 862.669 1325.11 863.284C1322.36 863.947 1319.03 864.349 1315.1 864.491C1307.8 864.776 1301.41 863.805 1295.92 861.58C1290.47 859.354 1286.24 855.898 1283.21 851.21C1280.18 846.523 1278.68 840.604 1278.73 833.455V727.773ZM1419.18 816.551V753.909H1449.44V863H1420.39V843.185H1419.25C1416.79 849.577 1412.69 854.714 1406.96 858.597C1401.28 862.479 1394.35 864.42 1386.15 864.42C1378.86 864.42 1372.45 862.763 1366.91 859.449C1361.37 856.134 1357.03 851.423 1353.91 845.315C1350.83 839.207 1349.27 831.892 1349.22 823.369V753.909H1379.48V817.972C1379.53 824.411 1381.25 829.501 1384.66 833.241C1388.07 836.982 1392.64 838.852 1398.37 838.852C1402.02 838.852 1405.42 838.024 1408.6 836.366C1411.77 834.662 1414.33 832.152 1416.27 828.838C1418.26 825.524 1419.23 821.428 1419.18 816.551ZM1504.74 865.06C1497.78 865.06 1491.58 863.852 1486.14 861.438C1480.69 858.975 1476.38 855.353 1473.21 850.571C1470.09 845.741 1468.52 839.728 1468.52 832.531C1468.52 826.471 1469.64 821.381 1471.86 817.261C1474.09 813.142 1477.12 809.828 1480.95 807.318C1484.79 804.809 1489.14 802.915 1494.02 801.636C1498.94 800.358 1504.11 799.458 1509.5 798.938C1515.85 798.275 1520.96 797.659 1524.84 797.091C1528.73 796.475 1531.54 795.576 1533.3 794.392C1535.05 793.208 1535.92 791.456 1535.92 789.136V788.71C1535.92 784.212 1534.5 780.732 1531.66 778.27C1528.87 775.808 1524.89 774.577 1519.73 774.577C1514.29 774.577 1509.95 775.784 1506.73 778.199C1503.51 780.566 1501.38 783.549 1500.34 787.148L1472.36 784.875C1473.78 778.246 1476.57 772.517 1480.74 767.688C1484.91 762.811 1490.28 759.07 1496.86 756.466C1503.49 753.814 1511.16 752.489 1519.87 752.489C1525.93 752.489 1531.73 753.199 1537.27 754.619C1542.86 756.04 1547.81 758.241 1552.12 761.224C1556.47 764.207 1559.91 768.043 1562.41 772.73C1564.92 777.37 1566.18 782.934 1566.18 789.42V863H1537.49V847.872H1536.63C1534.88 851.281 1532.54 854.288 1529.6 856.892C1526.67 859.449 1523.14 861.461 1519.02 862.929C1514.9 864.349 1510.14 865.06 1504.74 865.06ZM1513.41 844.179C1517.86 844.179 1521.79 843.303 1525.2 841.551C1528.61 839.752 1531.28 837.337 1533.22 834.307C1535.17 831.277 1536.14 827.844 1536.14 824.009V812.432C1535.19 813.047 1533.89 813.616 1532.23 814.136C1530.62 814.61 1528.8 815.06 1526.76 815.486C1524.73 815.865 1522.69 816.22 1520.65 816.551C1518.62 816.835 1516.77 817.096 1515.11 817.332C1511.56 817.853 1508.46 818.682 1505.81 819.818C1503.16 820.955 1501.1 822.493 1499.63 824.435C1498.16 826.329 1497.43 828.696 1497.43 831.537C1497.43 835.656 1498.92 838.805 1501.9 840.983C1504.93 843.114 1508.77 844.179 1513.41 844.179ZM1619.91 717.545V863H1589.65V717.545H1619.91ZM1778.38 790.273C1778.38 806.134 1775.37 819.629 1769.36 830.756C1763.39 841.883 1755.25 850.382 1744.93 856.253C1734.65 862.077 1723.1 864.989 1710.27 864.989C1697.34 864.989 1685.74 862.053 1675.47 856.182C1665.19 850.311 1657.07 841.812 1651.1 830.685C1645.14 819.558 1642.16 806.087 1642.16 790.273C1642.16 774.411 1645.14 760.917 1651.1 749.79C1657.07 738.663 1665.19 730.187 1675.47 724.364C1685.74 718.492 1697.34 715.557 1710.27 715.557C1723.1 715.557 1734.65 718.492 1744.93 724.364C1755.25 730.187 1763.39 738.663 1769.36 749.79C1775.37 760.917 1778.38 774.411 1778.38 790.273ZM1747.2 790.273C1747.2 779.998 1745.66 771.333 1742.58 764.278C1739.55 757.223 1735.27 751.873 1729.73 748.227C1724.19 744.581 1717.7 742.759 1710.27 742.759C1702.83 742.759 1696.35 744.581 1690.81 748.227C1685.27 751.873 1680.96 757.223 1677.88 764.278C1674.85 771.333 1673.33 779.998 1673.33 790.273C1673.33 800.547 1674.85 809.212 1677.88 816.267C1680.96 823.322 1685.27 828.672 1690.81 832.318C1696.35 835.964 1702.83 837.787 1710.27 837.787C1717.7 837.787 1724.19 835.964 1729.73 832.318C1735.27 828.672 1739.55 823.322 1742.58 816.267C1745.66 809.212 1747.2 800.547 1747.2 790.273ZM1880.06 759.378C1879.5 753.649 1877.06 749.198 1872.75 746.026C1868.44 742.853 1862.59 741.267 1855.21 741.267C1850.19 741.267 1845.95 741.977 1842.49 743.398C1839.04 744.771 1836.38 746.688 1834.54 749.151C1832.74 751.613 1831.84 754.406 1831.84 757.531C1831.74 760.135 1832.29 762.408 1833.47 764.349C1834.7 766.291 1836.38 767.972 1838.52 769.392C1840.65 770.765 1843.11 771.973 1845.9 773.014C1848.7 774.009 1851.68 774.861 1854.85 775.571L1867.92 778.696C1874.26 780.116 1880.09 782.01 1885.39 784.378C1890.69 786.745 1895.29 789.657 1899.17 793.114C1903.05 796.57 1906.06 800.642 1908.19 805.33C1910.37 810.017 1911.48 815.391 1911.53 821.452C1911.48 830.353 1909.21 838.071 1904.71 844.605C1900.26 851.092 1893.82 856.134 1885.39 859.733C1877.01 863.284 1866.9 865.06 1855.06 865.06C1843.32 865.06 1833.09 863.26 1824.38 859.662C1815.72 856.063 1808.95 850.737 1804.07 843.682C1799.24 836.58 1796.71 827.796 1796.47 817.332H1826.23C1826.56 822.209 1827.96 826.281 1830.42 829.548C1832.93 832.768 1836.27 835.206 1840.43 836.864C1844.65 838.473 1849.41 839.278 1854.71 839.278C1859.92 839.278 1864.44 838.521 1868.27 837.006C1872.16 835.491 1875.16 833.384 1877.29 830.685C1879.42 827.986 1880.49 824.884 1880.49 821.381C1880.49 818.114 1879.52 815.367 1877.58 813.142C1875.68 810.917 1872.89 809.023 1869.2 807.46C1865.55 805.898 1861.08 804.477 1855.77 803.199L1839.94 799.222C1827.67 796.239 1817.99 791.575 1810.89 785.23C1803.79 778.885 1800.26 770.339 1800.31 759.591C1800.26 750.784 1802.6 743.09 1807.34 736.509C1812.12 729.927 1818.68 724.79 1827.01 721.097C1835.34 717.403 1844.81 715.557 1855.42 715.557C1866.21 715.557 1875.64 717.403 1883.69 721.097C1891.78 724.79 1898.08 729.927 1902.58 736.509C1907.08 743.09 1909.4 750.713 1909.54 759.378H1880.06Z" fill="#E84E36"/>
<path d="M830.498 939.818L844.56 984.023H845.1L859.191 939.818H872.827L852.771 998H836.918L816.833 939.818H830.498ZM879.603 998V954.364H891.705V998H879.603ZM885.683 948.739C883.883 948.739 882.34 948.142 881.052 946.949C879.783 945.737 879.148 944.288 879.148 942.602C879.148 940.936 879.783 939.506 881.052 938.312C882.34 937.1 883.883 936.494 885.683 936.494C887.482 936.494 889.016 937.1 890.285 938.312C891.573 939.506 892.217 940.936 892.217 942.602C892.217 944.288 891.573 945.737 890.285 946.949C889.016 948.142 887.482 948.739 885.683 948.739ZM901.4 998V954.364H913.133V961.977H913.587C914.383 959.269 915.718 957.223 917.593 955.841C919.468 954.439 921.627 953.739 924.07 953.739C924.676 953.739 925.33 953.777 926.031 953.852C926.731 953.928 927.347 954.032 927.877 954.165V964.903C927.309 964.733 926.523 964.581 925.519 964.449C924.515 964.316 923.597 964.25 922.763 964.25C920.983 964.25 919.392 964.638 917.991 965.415C916.608 966.172 915.51 967.233 914.695 968.597C913.9 969.96 913.502 971.532 913.502 973.312V998H901.4ZM959.532 954.364V963.455H933.254V954.364H959.532ZM939.219 943.909H951.322V984.591C951.322 985.708 951.492 986.58 951.833 987.205C952.174 987.811 952.647 988.237 953.254 988.483C953.879 988.729 954.598 988.852 955.413 988.852C955.981 988.852 956.549 988.805 957.117 988.71C957.685 988.597 958.121 988.511 958.424 988.455L960.327 997.46C959.721 997.65 958.869 997.867 957.771 998.114C956.672 998.379 955.337 998.54 953.765 998.597C950.848 998.71 948.291 998.322 946.094 997.432C943.916 996.542 942.221 995.159 941.009 993.284C939.797 991.409 939.201 989.042 939.219 986.182V943.909ZM995.398 979.42V954.364H1007.5V998H995.881V990.074H995.427C994.442 992.631 992.804 994.686 990.512 996.239C988.239 997.792 985.465 998.568 982.188 998.568C979.272 998.568 976.705 997.905 974.489 996.58C972.273 995.254 970.54 993.369 969.29 990.926C968.059 988.483 967.434 985.557 967.415 982.148V954.364H979.518V979.989C979.537 982.564 980.228 984.6 981.592 986.097C982.955 987.593 984.783 988.341 987.075 988.341C988.533 988.341 989.897 988.009 991.165 987.347C992.434 986.665 993.457 985.661 994.234 984.335C995.029 983.009 995.417 981.371 995.398 979.42ZM1029.62 998.824C1026.84 998.824 1024.36 998.341 1022.18 997.375C1020 996.39 1018.28 994.941 1017.01 993.028C1015.76 991.097 1015.14 988.691 1015.14 985.812C1015.14 983.388 1015.58 981.352 1016.47 979.705C1017.36 978.057 1018.57 976.731 1020.11 975.727C1021.64 974.723 1023.38 973.966 1025.33 973.455C1027.3 972.943 1029.37 972.583 1031.53 972.375C1034.07 972.11 1036.11 971.864 1037.66 971.636C1039.22 971.39 1040.34 971.03 1041.04 970.557C1041.75 970.083 1042.1 969.383 1042.1 968.455V968.284C1042.1 966.485 1041.53 965.093 1040.39 964.108C1039.27 963.123 1037.68 962.631 1035.62 962.631C1033.44 962.631 1031.71 963.114 1030.42 964.08C1029.13 965.027 1028.28 966.22 1027.86 967.659L1016.67 966.75C1017.24 964.098 1018.36 961.807 1020.02 959.875C1021.69 957.924 1023.84 956.428 1026.47 955.386C1029.12 954.326 1032.19 953.795 1035.68 953.795C1038.1 953.795 1040.42 954.08 1042.64 954.648C1044.87 955.216 1046.85 956.097 1048.57 957.29C1050.32 958.483 1051.69 960.017 1052.69 961.892C1053.7 963.748 1054.2 965.973 1054.2 968.568V998H1042.72V991.949H1042.38C1041.68 993.312 1040.74 994.515 1039.57 995.557C1038.39 996.58 1036.98 997.384 1035.33 997.972C1033.69 998.54 1031.78 998.824 1029.62 998.824ZM1033.09 990.472C1034.87 990.472 1036.44 990.121 1037.81 989.42C1039.17 988.701 1040.24 987.735 1041.02 986.523C1041.79 985.311 1042.18 983.937 1042.18 982.403V977.773C1041.8 978.019 1041.28 978.246 1040.62 978.455C1039.97 978.644 1039.25 978.824 1038.43 978.994C1037.62 979.146 1036.8 979.288 1035.99 979.42C1035.17 979.534 1034.43 979.638 1033.77 979.733C1032.35 979.941 1031.11 980.273 1030.05 980.727C1028.99 981.182 1028.17 981.797 1027.58 982.574C1026.99 983.331 1026.7 984.278 1026.7 985.415C1026.7 987.062 1027.29 988.322 1028.49 989.193C1029.7 990.045 1031.23 990.472 1033.09 990.472ZM1075.69 939.818V998H1063.59V939.818H1075.69ZM1085.38 998V954.364H1097.49V998H1085.38ZM1091.46 948.739C1089.66 948.739 1088.12 948.142 1086.83 946.949C1085.56 945.737 1084.93 944.288 1084.93 942.602C1084.93 940.936 1085.56 939.506 1086.83 938.312C1088.12 937.1 1089.66 936.494 1091.46 936.494C1093.26 936.494 1094.8 937.1 1096.07 938.312C1097.35 939.506 1098 940.936 1098 942.602C1098 944.288 1097.35 945.737 1096.07 946.949C1094.8 948.142 1093.26 948.739 1091.46 948.739ZM1106.95 998V990.784L1128.32 964.335V964.023H1107.69V954.364H1142.89V962.233L1122.83 988.028V988.341H1143.63V998H1106.95ZM1171.52 998.852C1167.03 998.852 1163.17 997.943 1159.93 996.125C1156.71 994.288 1154.23 991.693 1152.49 988.341C1150.74 984.97 1149.87 980.983 1149.87 976.381C1149.87 971.892 1150.74 967.953 1152.49 964.562C1154.23 961.172 1156.68 958.53 1159.84 956.636C1163.03 954.742 1166.76 953.795 1171.04 953.795C1173.92 953.795 1176.6 954.259 1179.08 955.188C1181.58 956.097 1183.76 957.47 1185.61 959.307C1187.49 961.144 1188.94 963.455 1189.99 966.239C1191.03 969.004 1191.55 972.242 1191.55 975.955V979.278H1154.7V971.778H1180.16C1180.16 970.036 1179.78 968.492 1179.02 967.148C1178.26 965.803 1177.21 964.752 1175.87 963.994C1174.54 963.218 1173 962.83 1171.24 962.83C1169.4 962.83 1167.77 963.256 1166.35 964.108C1164.95 964.941 1163.85 966.068 1163.05 967.489C1162.26 968.89 1161.85 970.453 1161.83 972.176V979.307C1161.83 981.466 1162.23 983.331 1163.03 984.903C1163.84 986.475 1164.99 987.688 1166.46 988.54C1167.94 989.392 1169.69 989.818 1171.72 989.818C1173.06 989.818 1174.3 989.629 1175.41 989.25C1176.53 988.871 1177.49 988.303 1178.28 987.545C1179.08 986.788 1179.68 985.86 1180.1 984.761L1191.29 985.5C1190.73 988.189 1189.56 990.538 1187.8 992.545C1186.06 994.534 1183.8 996.087 1181.04 997.205C1178.29 998.303 1175.12 998.852 1171.52 998.852ZM1215.53 998.71C1212.21 998.71 1209.21 997.858 1206.52 996.153C1203.85 994.43 1201.73 991.902 1200.16 988.568C1198.6 985.216 1197.83 981.106 1197.83 976.239C1197.83 971.239 1198.63 967.081 1200.24 963.767C1201.85 960.434 1203.99 957.943 1206.66 956.295C1209.35 954.629 1212.3 953.795 1215.5 953.795C1217.94 953.795 1219.98 954.212 1221.61 955.045C1223.25 955.86 1224.58 956.883 1225.58 958.114C1226.61 959.326 1227.38 960.519 1227.91 961.693H1228.28V939.818H1240.36V998H1228.42V991.011H1227.91C1227.34 992.223 1226.54 993.426 1225.5 994.619C1224.48 995.794 1223.14 996.769 1221.49 997.545C1219.86 998.322 1217.87 998.71 1215.53 998.71ZM1219.36 989.08C1221.31 989.08 1222.96 988.549 1224.3 987.489C1225.67 986.409 1226.71 984.903 1227.43 982.972C1228.17 981.04 1228.54 978.777 1228.54 976.182C1228.54 973.587 1228.18 971.333 1227.46 969.42C1226.74 967.508 1225.7 966.03 1224.33 964.989C1222.97 963.947 1221.31 963.426 1219.36 963.426C1217.37 963.426 1215.7 963.966 1214.33 965.045C1212.97 966.125 1211.94 967.621 1211.24 969.534C1210.54 971.447 1210.19 973.663 1210.19 976.182C1210.19 978.72 1210.54 980.964 1211.24 982.915C1211.96 984.847 1212.99 986.362 1214.33 987.46C1215.7 988.54 1217.37 989.08 1219.36 989.08ZM1268.82 998V954.364H1280.36V962.062H1280.87C1281.78 959.506 1283.29 957.489 1285.41 956.011C1287.53 954.534 1290.07 953.795 1293.03 953.795C1296.02 953.795 1298.57 954.544 1300.67 956.04C1302.77 957.517 1304.17 959.525 1304.87 962.062H1305.33C1306.22 959.562 1307.83 957.564 1310.16 956.068C1312.51 954.553 1315.28 953.795 1318.48 953.795C1322.55 953.795 1325.86 955.093 1328.4 957.688C1330.95 960.263 1332.23 963.919 1332.23 968.653V998H1320.16V971.04C1320.16 968.616 1319.51 966.797 1318.23 965.585C1316.94 964.373 1315.33 963.767 1313.4 963.767C1311.2 963.767 1309.48 964.468 1308.25 965.869C1307.02 967.252 1306.41 969.08 1306.41 971.352V998H1294.67V970.784C1294.67 968.644 1294.06 966.939 1292.83 965.67C1291.62 964.402 1290.01 963.767 1288.03 963.767C1286.68 963.767 1285.47 964.108 1284.39 964.79C1283.33 965.453 1282.49 966.39 1281.86 967.602C1281.24 968.795 1280.92 970.197 1280.92 971.807V998H1268.82ZM1354.23 998.824C1351.45 998.824 1348.97 998.341 1346.79 997.375C1344.61 996.39 1342.89 994.941 1341.62 993.028C1340.37 991.097 1339.75 988.691 1339.75 985.812C1339.75 983.388 1340.19 981.352 1341.08 979.705C1341.97 978.057 1343.18 976.731 1344.72 975.727C1346.25 974.723 1347.99 973.966 1349.94 973.455C1351.91 972.943 1353.98 972.583 1356.14 972.375C1358.67 972.11 1360.72 971.864 1362.27 971.636C1363.83 971.39 1364.95 971.03 1365.65 970.557C1366.35 970.083 1366.71 969.383 1366.71 968.455V968.284C1366.71 966.485 1366.14 965.093 1365 964.108C1363.88 963.123 1362.29 962.631 1360.23 962.631C1358.05 962.631 1356.32 963.114 1355.03 964.08C1353.74 965.027 1352.89 966.22 1352.47 967.659L1341.28 966.75C1341.85 964.098 1342.96 961.807 1344.63 959.875C1346.3 957.924 1348.45 956.428 1351.08 955.386C1353.73 954.326 1356.8 953.795 1360.28 953.795C1362.71 953.795 1365.03 954.08 1367.25 954.648C1369.48 955.216 1371.46 956.097 1373.18 957.29C1374.92 958.483 1376.3 960.017 1377.3 961.892C1378.31 963.748 1378.81 965.973 1378.81 968.568V998H1367.33V991.949H1366.99C1366.29 993.312 1365.35 994.515 1364.18 995.557C1363 996.58 1361.59 997.384 1359.94 997.972C1358.3 998.54 1356.39 998.824 1354.23 998.824ZM1357.7 990.472C1359.48 990.472 1361.05 990.121 1362.42 989.42C1363.78 988.701 1364.85 987.735 1365.63 986.523C1366.4 985.311 1366.79 983.937 1366.79 982.403V977.773C1366.41 978.019 1365.89 978.246 1365.23 978.455C1364.58 978.644 1363.85 978.824 1363.04 978.994C1362.23 979.146 1361.41 979.288 1360.6 979.42C1359.78 979.534 1359.04 979.638 1358.38 979.733C1356.96 979.941 1355.72 980.273 1354.66 980.727C1353.6 981.182 1352.78 981.797 1352.19 982.574C1351.6 983.331 1351.31 984.278 1351.31 985.415C1351.31 987.062 1351.9 988.322 1353.1 989.193C1354.31 990.045 1355.84 990.472 1357.7 990.472ZM1407.91 998.852C1403.44 998.852 1399.6 997.905 1396.38 996.011C1393.18 994.098 1390.72 991.447 1388.99 988.057C1387.29 984.667 1386.44 980.765 1386.44 976.352C1386.44 971.883 1387.3 967.962 1389.02 964.591C1390.76 961.201 1393.23 958.559 1396.44 956.665C1399.64 954.752 1403.44 953.795 1407.86 953.795C1411.66 953.795 1415 954.487 1417.86 955.869C1420.72 957.252 1422.98 959.193 1424.65 961.693C1426.31 964.193 1427.23 967.129 1427.4 970.5H1415.98C1415.66 968.322 1414.81 966.57 1413.42 965.244C1412.06 963.9 1410.27 963.227 1408.05 963.227C1406.18 963.227 1404.54 963.739 1403.14 964.761C1401.76 965.765 1400.68 967.233 1399.9 969.165C1399.12 971.097 1398.74 973.436 1398.74 976.182C1398.74 978.966 1399.12 981.333 1399.87 983.284C1400.65 985.235 1401.74 986.722 1403.14 987.744C1404.54 988.767 1406.18 989.278 1408.05 989.278C1409.44 989.278 1410.68 988.994 1411.78 988.426C1412.89 987.858 1413.81 987.034 1414.53 985.955C1415.27 984.856 1415.75 983.54 1415.98 982.006H1427.4C1427.21 985.339 1426.3 988.275 1424.67 990.812C1423.06 993.331 1420.84 995.301 1418 996.722C1415.16 998.142 1411.8 998.852 1407.91 998.852ZM1488.84 968.909C1488.84 975.254 1487.64 980.652 1485.24 985.102C1482.85 989.553 1479.59 992.953 1475.46 995.301C1471.35 997.631 1466.73 998.795 1461.6 998.795C1456.43 998.795 1451.79 997.621 1447.68 995.273C1443.57 992.924 1440.32 989.525 1437.93 985.074C1435.55 980.623 1434.35 975.235 1434.35 968.909C1434.35 962.564 1435.55 957.167 1437.93 952.716C1440.32 948.265 1443.57 944.875 1447.68 942.545C1451.79 940.197 1456.43 939.023 1461.6 939.023C1466.73 939.023 1471.35 940.197 1475.46 942.545C1479.59 944.875 1482.85 948.265 1485.24 952.716C1487.64 957.167 1488.84 962.564 1488.84 968.909ZM1476.37 968.909C1476.37 964.799 1475.76 961.333 1474.52 958.511C1473.31 955.689 1471.6 953.549 1469.38 952.091C1467.17 950.633 1464.57 949.903 1461.6 949.903C1458.63 949.903 1456.03 950.633 1453.81 952.091C1451.6 953.549 1449.88 955.689 1448.64 958.511C1447.43 961.333 1446.83 964.799 1446.83 968.909C1446.83 973.019 1447.43 976.485 1448.64 979.307C1449.88 982.129 1451.6 984.269 1453.81 985.727C1456.03 987.186 1458.63 987.915 1461.6 987.915C1464.57 987.915 1467.17 987.186 1469.38 985.727C1471.6 984.269 1473.31 982.129 1474.52 979.307C1475.76 976.485 1476.37 973.019 1476.37 968.909ZM1529.52 956.551C1529.29 954.259 1528.32 952.479 1526.59 951.21C1524.87 949.941 1522.53 949.307 1519.57 949.307C1517.57 949.307 1515.87 949.591 1514.49 950.159C1513.11 950.708 1512.05 951.475 1511.31 952.46C1510.59 953.445 1510.23 954.562 1510.23 955.812C1510.19 956.854 1510.41 957.763 1510.88 958.54C1511.37 959.316 1512.05 959.989 1512.9 960.557C1513.75 961.106 1514.74 961.589 1515.85 962.006C1516.97 962.403 1518.16 962.744 1519.43 963.028L1524.66 964.278C1527.2 964.847 1529.53 965.604 1531.65 966.551C1533.77 967.498 1535.61 968.663 1537.16 970.045C1538.71 971.428 1539.92 973.057 1540.77 974.932C1541.64 976.807 1542.08 978.956 1542.1 981.381C1542.08 984.941 1541.17 988.028 1539.38 990.642C1537.6 993.237 1535.02 995.254 1531.65 996.693C1528.3 998.114 1524.25 998.824 1519.52 998.824C1514.82 998.824 1510.73 998.104 1507.25 996.665C1503.78 995.225 1501.07 993.095 1499.12 990.273C1497.19 987.432 1496.17 983.919 1496.08 979.733H1507.98C1508.12 981.684 1508.67 983.312 1509.66 984.619C1510.66 985.907 1512 986.883 1513.67 987.545C1515.35 988.189 1517.25 988.511 1519.38 988.511C1521.46 988.511 1523.27 988.208 1524.8 987.602C1526.35 986.996 1527.56 986.153 1528.41 985.074C1529.26 983.994 1529.69 982.754 1529.69 981.352C1529.69 980.045 1529.3 978.947 1528.52 978.057C1527.77 977.167 1526.65 976.409 1525.17 975.784C1523.71 975.159 1521.92 974.591 1519.8 974.08L1513.47 972.489C1508.56 971.295 1504.69 969.43 1501.85 966.892C1499.01 964.354 1497.6 960.936 1497.61 956.636C1497.6 953.114 1498.53 950.036 1500.43 947.403C1502.34 944.771 1504.96 942.716 1508.3 941.239C1511.63 939.761 1515.42 939.023 1519.66 939.023C1523.98 939.023 1527.75 939.761 1530.97 941.239C1534.21 942.716 1536.72 944.771 1538.52 947.403C1540.32 950.036 1541.25 953.085 1541.31 956.551H1529.52ZM1588.55 998.852C1584.06 998.852 1580.2 997.943 1576.96 996.125C1573.74 994.288 1571.26 991.693 1569.52 988.341C1567.78 984.97 1566.9 980.983 1566.9 976.381C1566.9 971.892 1567.78 967.953 1569.52 964.562C1571.26 961.172 1573.71 958.53 1576.88 956.636C1580.06 954.742 1583.79 953.795 1588.07 953.795C1590.95 953.795 1593.63 954.259 1596.11 955.188C1598.61 956.097 1600.79 957.47 1602.64 959.307C1604.52 961.144 1605.98 963.455 1607.02 966.239C1608.06 969.004 1608.58 972.242 1608.58 975.955V979.278H1571.73V971.778H1597.19C1597.19 970.036 1596.81 968.492 1596.05 967.148C1595.29 965.803 1594.24 964.752 1592.9 963.994C1591.57 963.218 1590.03 962.83 1588.27 962.83C1586.43 962.83 1584.8 963.256 1583.38 964.108C1581.98 964.941 1580.88 966.068 1580.09 967.489C1579.29 968.89 1578.88 970.453 1578.86 972.176V979.307C1578.86 981.466 1579.26 983.331 1580.06 984.903C1580.87 986.475 1582.02 987.688 1583.5 988.54C1584.97 989.392 1586.72 989.818 1588.75 989.818C1590.1 989.818 1591.33 989.629 1592.44 989.25C1593.56 988.871 1594.52 988.303 1595.31 987.545C1596.11 986.788 1596.71 985.86 1597.13 984.761L1608.32 985.5C1607.76 988.189 1606.59 990.538 1604.83 992.545C1603.09 994.534 1600.83 996.087 1598.07 997.205C1595.32 998.303 1592.15 998.852 1588.55 998.852ZM1628.58 972.773V998H1616.48V954.364H1628.01V962.062H1628.52C1629.49 959.525 1631.11 957.517 1633.38 956.04C1635.65 954.544 1638.41 953.795 1641.65 953.795C1644.68 953.795 1647.32 954.458 1649.57 955.784C1651.83 957.11 1653.58 959.004 1654.83 961.466C1656.08 963.909 1656.71 966.826 1656.71 970.216V998H1644.6V972.375C1644.62 969.705 1643.94 967.621 1642.56 966.125C1641.17 964.61 1639.27 963.852 1636.85 963.852C1635.22 963.852 1633.78 964.203 1632.53 964.903C1631.3 965.604 1630.33 966.627 1629.63 967.972C1628.95 969.297 1628.6 970.898 1628.58 972.773ZM1705.36 954.364L1690.11 998H1676.47L1661.22 954.364H1674L1683.06 985.585H1683.52L1692.55 954.364H1705.36ZM1711.56 998V954.364H1723.66V998H1711.56ZM1717.64 948.739C1715.84 948.739 1714.29 948.142 1713 946.949C1711.74 945.737 1711.1 944.288 1711.1 942.602C1711.1 940.936 1711.74 939.506 1713 938.312C1714.29 937.1 1715.84 936.494 1717.64 936.494C1719.43 936.494 1720.97 937.1 1722.24 938.312C1723.53 939.506 1724.17 940.936 1724.17 942.602C1724.17 944.288 1723.53 945.737 1722.24 946.949C1720.97 948.142 1719.43 948.739 1717.64 948.739ZM1733.35 998V954.364H1745.09V961.977H1745.54C1746.34 959.269 1747.67 957.223 1749.55 955.841C1751.42 954.439 1753.58 953.739 1756.02 953.739C1756.63 953.739 1757.28 953.777 1757.98 953.852C1758.68 953.928 1759.3 954.032 1759.83 954.165V964.903C1759.26 964.733 1758.48 964.581 1757.47 964.449C1756.47 964.316 1755.55 964.25 1754.72 964.25C1752.94 964.25 1751.35 964.638 1749.94 965.415C1748.56 966.172 1747.46 967.233 1746.65 968.597C1745.85 969.96 1745.46 971.532 1745.46 973.312V998H1733.35ZM1783.77 998.852C1779.36 998.852 1775.54 997.915 1772.32 996.04C1769.12 994.146 1766.65 991.513 1764.91 988.142C1763.17 984.752 1762.29 980.822 1762.29 976.352C1762.29 971.845 1763.17 967.905 1764.91 964.534C1766.65 961.144 1769.12 958.511 1772.32 956.636C1775.54 954.742 1779.36 953.795 1783.77 953.795C1788.18 953.795 1791.99 954.742 1795.19 956.636C1798.41 958.511 1800.89 961.144 1802.64 964.534C1804.38 967.905 1805.25 971.845 1805.25 976.352C1805.25 980.822 1804.38 984.752 1802.64 988.142C1800.89 991.513 1798.41 994.146 1795.19 996.04C1791.99 997.915 1788.18 998.852 1783.77 998.852ZM1783.83 989.477C1785.84 989.477 1787.51 988.909 1788.86 987.773C1790.2 986.617 1791.22 985.045 1791.9 983.057C1792.6 981.068 1792.95 978.805 1792.95 976.267C1792.95 973.729 1792.6 971.466 1791.9 969.477C1791.22 967.489 1790.2 965.917 1788.86 964.761C1787.51 963.606 1785.84 963.028 1783.83 963.028C1781.8 963.028 1780.1 963.606 1778.72 964.761C1777.35 965.917 1776.32 967.489 1775.62 969.477C1774.94 971.466 1774.6 973.729 1774.6 976.267C1774.6 978.805 1774.94 981.068 1775.62 983.057C1776.32 985.045 1777.35 986.617 1778.72 987.773C1780.1 988.909 1781.8 989.477 1783.83 989.477ZM1825.22 972.773V998H1813.12V954.364H1824.65V962.062H1825.16C1826.13 959.525 1827.75 957.517 1830.02 956.04C1832.29 954.544 1835.05 953.795 1838.29 953.795C1841.32 953.795 1843.96 954.458 1846.22 955.784C1848.47 957.11 1850.22 959.004 1851.47 961.466C1852.72 963.909 1853.35 966.826 1853.35 970.216V998H1841.24V972.375C1841.26 969.705 1840.58 967.621 1839.2 966.125C1837.82 964.61 1835.91 963.852 1833.49 963.852C1831.86 963.852 1830.42 964.203 1829.17 964.903C1827.94 965.604 1826.97 966.627 1826.27 967.972C1825.59 969.297 1825.24 970.898 1825.22 972.773ZM1862.88 998V954.364H1874.42V962.062H1874.93C1875.84 959.506 1877.35 957.489 1879.48 956.011C1881.6 954.534 1884.13 953.795 1887.09 953.795C1890.08 953.795 1892.63 954.544 1894.73 956.04C1896.83 957.517 1898.23 959.525 1898.94 962.062H1899.39C1900.28 959.562 1901.89 957.564 1904.22 956.068C1906.57 954.553 1909.34 953.795 1912.54 953.795C1916.62 953.795 1919.92 955.093 1922.46 957.688C1925.01 960.263 1926.29 963.919 1926.29 968.653V998H1914.22V971.04C1914.22 968.616 1913.58 966.797 1912.29 965.585C1911 964.373 1909.39 963.767 1907.46 963.767C1905.26 963.767 1903.55 964.468 1902.32 965.869C1901.08 967.252 1900.47 969.08 1900.47 971.352V998H1888.74V970.784C1888.74 968.644 1888.12 966.939 1886.89 965.67C1885.68 964.402 1884.08 963.767 1882.09 963.767C1880.74 963.767 1879.53 964.108 1878.45 964.79C1877.39 965.453 1876.55 966.39 1875.92 967.602C1875.3 968.795 1874.99 970.197 1874.99 971.807V998H1862.88ZM1955.74 998.852C1951.25 998.852 1947.39 997.943 1944.15 996.125C1940.93 994.288 1938.45 991.693 1936.71 988.341C1934.96 984.97 1934.09 980.983 1934.09 976.381C1934.09 971.892 1934.96 967.953 1936.71 964.562C1938.45 961.172 1940.9 958.53 1944.06 956.636C1947.25 954.742 1950.98 953.795 1955.26 953.795C1958.14 953.795 1960.82 954.259 1963.3 955.188C1965.8 956.097 1967.97 957.47 1969.83 959.307C1971.71 961.144 1973.16 963.455 1974.21 966.239C1975.25 969.004 1975.77 972.242 1975.77 975.955V979.278H1938.92V971.778H1964.38C1964.38 970.036 1964 968.492 1963.24 967.148C1962.48 965.803 1961.43 964.752 1960.09 963.994C1958.76 963.218 1957.22 962.83 1955.46 962.83C1953.62 962.83 1951.99 963.256 1950.57 964.108C1949.17 964.941 1948.07 966.068 1947.27 967.489C1946.48 968.89 1946.07 970.453 1946.05 972.176V979.307C1946.05 981.466 1946.45 983.331 1947.25 984.903C1948.06 986.475 1949.21 987.688 1950.68 988.54C1952.16 989.392 1953.91 989.818 1955.94 989.818C1957.28 989.818 1958.51 989.629 1959.63 989.25C1960.75 988.871 1961.71 988.303 1962.5 987.545C1963.3 986.788 1963.9 985.86 1964.32 984.761L1975.51 985.5C1974.94 988.189 1973.78 990.538 1972.02 992.545C1970.28 994.534 1968.02 996.087 1965.26 997.205C1962.51 998.303 1959.34 998.852 1955.74 998.852ZM1995.77 972.773V998H1983.67V954.364H1995.2V962.062H1995.71C1996.68 959.525 1998.3 957.517 2000.57 956.04C2002.84 954.544 2005.6 953.795 2008.84 953.795C2011.87 953.795 2014.51 954.458 2016.76 955.784C2019.02 957.11 2020.77 959.004 2022.02 961.466C2023.27 963.909 2023.89 966.826 2023.89 970.216V998H2011.79V972.375C2011.81 969.705 2011.13 967.621 2009.75 966.125C2008.36 964.61 2006.46 963.852 2004.03 963.852C2002.41 963.852 2000.97 964.203 1999.72 964.903C1998.49 965.604 1997.52 966.627 1996.82 967.972C1996.14 969.297 1995.79 970.898 1995.77 972.773ZM2056.64 954.364V963.455H2030.36V954.364H2056.64ZM2036.33 943.909H2048.43V984.591C2048.43 985.708 2048.6 986.58 2048.94 987.205C2049.28 987.811 2049.76 988.237 2050.36 988.483C2050.99 988.729 2051.71 988.852 2052.52 988.852C2053.09 988.852 2053.66 988.805 2054.23 988.71C2054.79 988.597 2055.23 988.511 2055.53 988.455L2057.44 997.46C2056.83 997.65 2055.98 997.867 2054.88 998.114C2053.78 998.379 2052.45 998.54 2050.87 998.597C2047.96 998.71 2045.4 998.322 2043.2 997.432C2041.03 996.542 2039.33 995.159 2038.12 993.284C2036.91 991.409 2036.31 989.042 2036.33 986.182V943.909ZM2100.28 966.807L2089.21 967.489C2089.02 966.542 2088.61 965.689 2087.98 964.932C2087.36 964.155 2086.53 963.54 2085.51 963.085C2084.51 962.612 2083.31 962.375 2081.9 962.375C2080.03 962.375 2078.45 962.773 2077.16 963.568C2075.87 964.345 2075.23 965.386 2075.23 966.693C2075.23 967.735 2075.64 968.616 2076.48 969.335C2077.31 970.055 2078.74 970.633 2080.77 971.068L2088.67 972.659C2092.91 973.53 2096.07 974.932 2098.15 976.864C2100.24 978.795 2101.28 981.333 2101.28 984.477C2101.28 987.337 2100.44 989.847 2098.75 992.006C2097.08 994.165 2094.79 995.85 2091.88 997.062C2088.98 998.256 2085.64 998.852 2081.85 998.852C2076.07 998.852 2071.47 997.65 2068.04 995.244C2064.63 992.82 2062.63 989.525 2062.05 985.358L2073.95 984.733C2074.31 986.494 2075.18 987.839 2076.56 988.767C2077.95 989.676 2079.72 990.131 2081.88 990.131C2084 990.131 2085.7 989.723 2086.99 988.909C2088.3 988.076 2088.96 987.006 2088.98 985.699C2088.96 984.6 2088.5 983.701 2087.59 983C2086.68 982.28 2085.28 981.731 2083.38 981.352L2075.82 979.847C2071.56 978.994 2068.39 977.517 2066.31 975.415C2064.24 973.312 2063.21 970.633 2063.21 967.375C2063.21 964.572 2063.97 962.157 2065.48 960.131C2067.02 958.104 2069.17 956.542 2071.93 955.443C2074.72 954.345 2077.97 953.795 2081.71 953.795C2087.22 953.795 2091.55 954.96 2094.72 957.29C2097.9 959.619 2099.75 962.792 2100.28 966.807Z" fill="#E84E36"/>
</g>
<defs>
<linearGradient id="paint0_linear_64_58" x1="1528" y1="-59" x2="1528" y2="1228" gradientUnits="userSpaceOnUse">
<stop stop-color="#FFF8EE"/>
<stop offset="1" stop-color="#FFE9C7"/>
</linearGradient>
<clipPath id="clip0_64_58">
<rect width="2920" height="1168" fill="white"/>
</clipPath>
</defs>
</svg>
